<svg xmlns="http://www.w3.org/2000/svg" viewBox="0 0 608 148" height="40px" fill="#fff"><path d="M524.43 0h39.23c4.85.3 7.59 4.59 10.71 7.69l24.94 25c3.16 3.25 6.99 6.12 8.69 10.49v39.44c-.24 2.44-1.2 4.74-3.07 6.37l-59.12 59c-4.36-.41-6.83-4.32-9.76-7.05-3.88-4.2-8.18-8.02-11.83-12.42-1.57-1.95.57-4.06 1.84-5.47l56.99-57.04c2.53-2.13.29-4.9-1.48-6.6l-33-33.04c-1.3-1.13-2.61-2.76-4.51-2.66-2.91 1.78-5.07 4.5-7.5 6.85l-28.55 28.5c-1.25 1.27-2.48 2.59-3.4 4.12 1.31 3.46 4.38 5.9 7.21 8.14 1.69 1.12 3.37-.83 4.59-1.84l25.05-25.09c1.34-1.75 4.06-2.38 5.64-.57 4.87 4.48 9.3 9.42 14.12 13.95 1.7 1.83 3.99 3.5 4.42 6.13-.94 1.87-2.46 3.35-3.9 4.82-13.01 12.67-25.48 25.87-38.44 38.59-3.14 2.91-5.74 6.51-9.43 8.76-1.99.76-3.37-1.14-4.71-2.24l-24.47-24.48c-2.02-1.91-3.5-4.47-3.41-7.31L481.21 48c.02-3.22-.21-7 2.49-9.33l30.5-30.5c3.11-3.06 5.92-6.74 10.23-8.17zm-214.4 7.09l5.17-1.27V43H310l.03-35.91zm60.07-.38l5.11-1.06L375.2 37l15.6-.08c-1.14-3.44-3.41-6.29-5.17-9.4 1.88-.91 3.77-1.78 5.67-2.64 1.54 3.46 2.2 7.19 3 10.86 2.9 1.93 6.62 1.12 9.91 1.18-1.21-3.74-3.64-6.85-5.81-10.05l5.71-3.04c1.95 3.66 2.82 7.69 3.5 11.74 2.82 2.23 6.71 1.24 10.02 1.38-1.22-3.71-3.8-6.67-5.75-9.98 1.16-1.82 3.6-2.16 5.43-3.09 1.83 3.86 3.31 7.92 3.7 12.21 2.76.66 5.87 1.62 8.62.48 3.2-3.29 2.5-8.8 5.94-11.98 2.21-2.09 5.89-2.18 8.28-.35 5.11 3.73 6.39 11.97 2.22 16.85-3.72 3.5-9.62 1.95-12.94-1.35l-2.91 3.39c-2.32-.28-5.04.32-6.95-1.35-1.39-1.14-2.19-2.81-3.15-4.28-.72 1.88-1.52 3.72-2.32 5.57-2.12-.11-4.31.16-6.37-.44-2.37-.77-3.47-3.15-4.63-5.14l-2.43 5.59c-2.12-.07-4.26.03-6.35-.32-2.27-.74-3.43-2.98-4.78-4.76l-2.32 5.01c-5.97 0-11.95-.06-17.92.04-1.3-1.43-3.27-2.76-2.9-4.97V6.71m68.12 22.33c-2.29 1.36-3.14 3.99-4.18 6.27 3.43 1.33 8.51 3.37 11.19-.33 1.05-3.65-3.76-6.52-7.01-5.94zm-155.53-15.1l3.26 3.03 3.02-3 3.84 3.52-3.8 3.53-3.11-2.89-3.16 2.93-3.65-3.55 3.6-3.57zm41.38 12.79c.75-2.1 2.09-3.92 3.38-5.74 2.53 1.92 5.23 3.83 6.9 6.6 1.63 2.56 1.96 5.65 2.53 8.56 3.6 1.04 7.36.92 11.07.88-2.77-7.65 5.32-16.26 13.06-14.89 2.89 1.05 1.74 4.42 1.72 6.74-3.35-.49-7.34-1.97-10.25.5-2.25 2.67.36 6.34 3.2 7.15 2.98.83 6.14.38 9.2.53l-2.03 5.92-19.97.02c-3 .25-4.95-2.36-6.66-4.39l-.42 4.37-15.49.02v-5.99l13.09-.02c.68-5.83-5.78-7.32-9.33-10.26zm-29.33-.3l5.64-2.54c1.54 3.56 3.48 7.19 3.36 11.19.04 2.91-1.62 5.42-2.86 7.93-8.01-.06-16.01.06-24.01-.03-3.53.13-7.59-2.08-7.81-5.93-.44-3.51.77-8.5 4.86-9.15-.57 2.36-2.6 4.92-1.17 7.33 1.95 1.79 4.77 1.79 7.25 1.8l20.66-.1c-1.39-3.81-3.81-7.08-5.92-10.5zM170.83 68.88c2.68-3.74 8.36-3.78 11.84-1.17l-2.68 4.38c-2 .04-5.01-1.82-5.84 1 1.68 2.76 5.1 2.87 7.95 3.22l-1.86 4.31-14.48 2.08a182.65 182.65 0 0 1 1.52-5.05l2.01-.6c-.63-2.8-.61-6.01 1.54-8.17zM189.35 71c3.16-.78 6.35-1.52 9.62-1.75l.04 46.78c.26 3.25-2.06 6.64-4.94 7.84-14.08.31-28.19.05-42.28.11.2-3.39 1.22-6.8 3.91-9.06 4.43.13 8.87.08 13.3.08l.1-28.17c3.19-.81 6.4-1.54 9.66-2.03l.04 30.2h10.51l.04-44zm20.52-.27c3.19-.83 6.41-1.55 9.69-1.92l.02 55.18-9.78.01.07-53.27zm205.1.49c2.99-1.29 6.31-1.59 9.52-1.96l.02 54.73c-8.55-.02-17.1.06-25.65-.01-2.54.33-4.18-1.81-5.64-3.51-4.87 5.23-13.46 4.47-18.83.41-1.37 1.02-2.43 2.87-4.26 3.01-5.53.24-11.84 1.12-16.11-3.21l-.43 3.31L329 124v-9c6.29-.05 12.59.14 18.87-.15.47-6.2-5.77-8.99-10.3-11.52-1.13-.9-3.42-1.55-3.09-3.34.95-3.03 2.99-5.54 4.54-8.27 4.78.61 8.39 4.34 11.33 7.86 3.14 3.76 3.85 8.69 4.66 13.34 3.25 2.65 7.94 2.19 11.88 1.95 3.88-2.07 4.2-7.11 5.53-10.84 1.28-4.9 4.78-10.52 10.56-10.08 5.96-.87 11.14 3.64 13.02 8.99 1.85 4 .94 9.43 5.06 12.14 4.53-.13 9.05-.07 13.58-.08l-.04-39.03c.01-1.59-.01-3.2.37-4.75m-31.79 31.59c-3.12 2.15-5.93 5.78-5.74 9.66 2.22 1.64 5.02 2.36 7.75 2.53 2.63-.17 5.96-1.95 5.65-4.99-.55-3.92-4.46-5.75-7.66-7.2zm52.69-32.08c3.19-.83 6.41-1.55 9.69-1.93l.02 55.19-9.78.01.07-53.27zm-412.56.37l9.54-1.98-.04 40.9c-.28 1.76.65 3.45 2.38 3.97 5.53 1.85 11.5.8 17.21.89-1.65-3.88-4.17-7.39-5.15-11.54 3.21-1.64 6.54-3.03 10.07-3.81 1.76 4.42 2.47 9.17 1.76 13.9l3.91 1.79c5.73-7.28 11.82-14.69 19.98-19.34 5.1-2.79 12.53-3.11 16.66 1.56 4.18 4.29 5.63 10.34 6.2 16.12 5.4 1.9 11.17 1.45 16.79 1.45-2.29-5.28-1.9-11.8 2.26-16.06 4.09-5.03 10.81-6.41 16.99-6.06 6.22 9.2 5.99 21.35 1.23 31.12-10.38-.06-20.77.05-31.14-.01-2.7.11-5.06-1.31-7.37-2.48l-.19 2.48c-13.83-.05-27.67.08-41.49-.03-2.78.25-4.56-2.11-6.42-3.73l-1.87 3.7c-5.27.01-10.55.25-15.82-.02-2.89.03-4.97-2.17-7.04-3.86-1.99 3.72-4.19 7.48-7.61 10.07-5.08 4.13-12.25 4.77-18.42 3.18-2.75-.66-4.68-2.89-5.73-5.41v-4.77c.67-1.61 1.44-3.16 2.21-4.71 5.09 2.42 9.74 6.94 15.75 6.43 3.4-.29 5.41-3.64 5.2-6.83l.15-46.92m105.8 35.79c.28 4.95 5.43 7.25 9.65 8.08-.26-4.98-1.56-9.84-3.96-14.22-2.69 1.06-6.05 2.66-5.69 6.14m-54.57 8.09l22.73.02c.32-3.17 1.06-6.65-.52-9.61-.93-1.7-3.04-2.13-4.79-2.39-7.35 1.01-12.69 6.76-17.42 11.98zM80 85.03c2.6-2.02 4.29-6.52 8.06-5.96 2.27 1.72 4.08 3.96 6.05 6-2.62 1.99-4.41 6.38-8.17 5.87C83.75 89.2 81.97 87 80 85.03zm46 0c2.6-2.01 4.29-6.55 8.07-5.96 2.26 1.73 4.07 3.96 6.04 6-2.63 1.99-4.41 6.39-8.17 5.87-2.2-1.74-3.97-3.94-5.94-5.91zm181.69 12.95c3.28-1.7 6.47-3.81 10.22-4.27 4.5 8.97 6.94 19.53 4.07 29.38-1.89 6.07-5.63 12.39-12 14.45-3.87.77-8.72 1.27-11.69-1.91-2.01-1.86-2.18-4.75-2.77-7.25 5.35.02 11.38 1.88 16.05-1.71 4.61-3.65 3.73-10.27 1.96-15.17-1.27-4.82-5.01-8.58-5.84-13.52zm-25.68.45c3.14-1.52 6.24-3.31 9.78-3.68 2.43 5.48 5.31 11.11 5.03 17.29.06 4.33-2.23 8.15-4.14 11.88l-36.78.07c-4.48.04-9.7-1.89-11.29-6.46-1.44-5.28-.65-11.61 3.38-15.59 1.39-1.43 3.55-.7 5.31-.92-.54 3.74-4 7.66-1.5 11.31 2.39 2.34 6.02 2.7 9.2 2.69l28.68-.07c-.83-2.29-1.68-4.58-3.01-6.63-1.86-3.14-4.89-5.94-4.66-9.89zM264 137.03c1.96-2 3.74-4.21 5.93-5.97 3.8-.54 5.59 3.94 8.18 6.01-2.63 2-4.42 6.38-8.18 5.87-2.19-1.74-3.96-3.94-5.93-5.91z"/></svg>
